<svg xmlns="http://www.w3.org/2000/svg" xmlns:xlink="http://www.w3.org/1999/xlink" width="1165" zoomAndPan="magnify" viewBox="0 0 873.75 517.49999" height="690" preserveAspectRatio="xMidYMid meet" version="1.0"><defs><g/><clipPath id="0ad94ae0a1"><rect x="0" width="382" y="0" height="354"/></clipPath><clipPath id="12bbe046c1"><rect x="0" width="247" y="0" height="354"/></clipPath><clipPath id="4b8ca24296"><path d="M 332.585938 283.140625 L 372.488281 283.140625 L 372.488281 354.261719 L 332.585938 354.261719 Z M 332.585938 283.140625 " clip-rule="nonzero"/></clipPath><clipPath id="86e782ff10"><path d="M 0.585938 0.140625 L 40.488281 0.140625 L 40.488281 71.261719 L 0.585938 71.261719 Z M 0.585938 0.140625 " clip-rule="nonzero"/></clipPath><clipPath id="1499f35dcb"><rect x="0" width="41" y="0" height="72"/></clipPath><clipPath id="907f4141c3"><path d="M 690.453125 153.8125 L 771.667969 153.8125 L 771.667969 268.839844 L 690.453125 268.839844 Z M 690.453125 153.8125 " clip-rule="nonzero"/></clipPath><clipPath id="876679f67f"><path d="M 0.453125 0.8125 L 81.667969 0.8125 L 81.667969 115.839844 L 0.453125 115.839844 Z M 0.453125 0.8125 " clip-rule="nonzero"/></clipPath><clipPath id="ac4659f30b"><rect x="0" width="82" y="0" height="116"/></clipPath><clipPath id="ddc4ce86bb"><path d="M 355.535156 283.140625 L 400.996094 283.140625 L 400.996094 348.3125 L 355.535156 348.3125 Z M 355.535156 283.140625 " clip-rule="nonzero"/></clipPath><clipPath id="101a8eed7c"><path d="M 372.410156 283.140625 L 400.996094 283.140625 L 384.117188 348.25 L 355.535156 348.25 Z M 372.410156 283.140625 " clip-rule="nonzero"/></clipPath><clipPath id="a1760aebd4"><path d="M 0.535156 0.140625 L 45.996094 0.140625 L 45.996094 65.3125 L 0.535156 65.3125 Z M 0.535156 0.140625 " clip-rule="nonzero"/></clipPath><clipPath id="6aa4bfbf42"><path d="M 17.410156 0.140625 L 45.996094 0.140625 L 29.117188 65.25 L 0.535156 65.25 Z M 17.410156 0.140625 " clip-rule="nonzero"/></clipPath><clipPath id="b519a9fb3b"><rect x="0" width="46" y="0" height="66"/></clipPath><clipPath id="0540d29992"><path d="M 749.835938 203.730469 L 799.808594 203.730469 L 799.808594 268.929688 L 749.835938 268.929688 Z M 749.835938 203.730469 " clip-rule="nonzero"/></clipPath><clipPath id="1edef031bc"><path d="M 766.714844 203.730469 L 799.808594 203.730469 L 782.929688 268.839844 L 749.835938 268.839844 Z M 766.714844 203.730469 " clip-rule="nonzero"/></clipPath><clipPath id="5945358fee"><path d="M 0.835938 0.730469 L 50.808594 0.730469 L 50.808594 65.929688 L 0.835938 65.929688 Z M 0.835938 0.730469 " clip-rule="nonzero"/></clipPath><clipPath id="0d95b0cacc"><path d="M 17.714844 0.730469 L 50.808594 0.730469 L 33.929688 65.839844 L 0.835938 65.839844 Z M 17.714844 0.730469 " clip-rule="nonzero"/></clipPath><clipPath id="ab9d23359c"><rect x="0" width="51" y="0" height="66"/></clipPath><clipPath id="9b7aedc8ec"><rect x="0" width="285" y="0" height="388"/></clipPath></defs><g transform="matrix(1, 0, 0, 1, 61, 80)"><g clip-path="url(#0ad94ae0a1)"><g fill="#000000" fill-opacity="1"><g transform="translate(0.470458, 260.873202)"><g><path d="M 67.890625 3.421875 C 56.171875 3.421875 45.953125 1.550781 37.234375 -2.1875 C 28.523438 -5.9375 21.769531 -11.148438 16.96875 -17.828125 C 12.164062 -24.503906 9.765625 -32.316406 9.765625 -41.265625 L 46.15625 -41.265625 C 46.320312 -36.054688 48.359375 -31.90625 52.265625 -28.8125 C 56.171875 -25.71875 61.539062 -24.171875 68.375 -24.171875 C 74.238281 -24.171875 78.796875 -25.269531 82.046875 -27.46875 C 85.304688 -29.664062 86.9375 -32.640625 86.9375 -36.390625 C 86.9375 -40.453125 84.738281 -43.828125 80.34375 -46.515625 C 75.945312 -49.203125 68.785156 -51.359375 58.859375 -52.984375 C 42.578125 -55.921875 30.609375 -60.644531 22.953125 -67.15625 C 15.304688 -73.664062 11.484375 -82.210938 11.484375 -92.796875 C 11.484375 -105.328125 16.160156 -114.929688 25.515625 -121.609375 C 34.878906 -128.285156 48.191406 -131.625 65.453125 -131.625 C 82.546875 -131.625 95.929688 -127.957031 105.609375 -120.625 C 115.296875 -113.300781 120.550781 -102.882812 121.375 -89.375 L 85.953125 -89.375 C 85.628906 -94.257812 83.632812 -98.046875 79.96875 -100.734375 C 76.3125 -103.421875 71.390625 -104.765625 65.203125 -104.765625 C 59.671875 -104.765625 55.316406 -103.703125 52.140625 -101.578125 C 48.960938 -99.460938 47.375 -96.535156 47.375 -92.796875 C 47.375 -88.890625 49.445312 -85.835938 53.59375 -83.640625 C 57.75 -81.441406 65.28125 -79.203125 76.1875 -76.921875 C 107.769531 -70.578125 123.5625 -56.984375 123.5625 -36.140625 C 123.5625 -23.929688 118.632812 -14.285156 108.78125 -7.203125 C 98.9375 -0.117188 85.304688 3.421875 67.890625 3.421875 Z M 67.890625 3.421875 "/></g></g></g><g fill="#000000" fill-opacity="1"><g transform="translate(109.855336, 260.873202)"><g><path d="M 96.21875 3.421875 C 88.238281 3.421875 80.828125 2.242188 73.984375 -0.109375 C 67.148438 -2.472656 61.046875 -5.773438 55.671875 -10.015625 L 55.671875 48.84375 L 18.5625 48.84375 L 18.5625 -128.203125 L 46.15625 -128.203125 L 50.3125 -113.546875 C 56.007812 -119.242188 62.765625 -123.679688 70.578125 -126.859375 C 78.390625 -130.035156 86.9375 -131.625 96.21875 -131.625 C 109.082031 -131.625 120.394531 -128.734375 130.15625 -122.953125 C 139.925781 -117.171875 147.617188 -109.234375 153.234375 -99.140625 C 158.847656 -89.046875 161.65625 -77.40625 161.65625 -64.21875 C 161.65625 -51.03125 158.847656 -39.347656 153.234375 -29.171875 C 147.617188 -19.003906 139.925781 -11.03125 130.15625 -5.25 C 120.394531 0.53125 109.082031 3.421875 96.21875 3.421875 Z M 54.21875 -64.21875 C 54.21875 -53.800781 57.515625 -45.253906 64.109375 -38.578125 C 70.703125 -31.910156 79.207031 -28.578125 89.625 -28.578125 C 100.207031 -28.578125 108.753906 -31.910156 115.265625 -38.578125 C 121.773438 -45.253906 125.03125 -53.800781 125.03125 -64.21875 C 125.03125 -74.644531 121.773438 -83.191406 115.265625 -89.859375 C 108.753906 -96.535156 100.207031 -99.875 89.625 -99.875 C 79.207031 -99.875 70.703125 -96.535156 64.109375 -89.859375 C 57.515625 -83.191406 54.21875 -74.644531 54.21875 -64.21875 Z M 54.21875 -64.21875 "/></g></g></g><g fill="#000000" fill-opacity="1"><g transform="translate(256.84249, 260.873202)"><g><path d="M 18.5625 0 L 18.5625 -128.203125 L 46.15625 -128.203125 L 51.03125 -111.109375 C 55.269531 -117.128906 60.484375 -121.484375 66.671875 -124.171875 C 72.859375 -126.859375 80.671875 -128.203125 90.109375 -128.203125 L 104.03125 -128.203125 L 104.03125 -94.5 L 89.859375 -94.5 C 79.285156 -94.5 70.941406 -91.648438 64.828125 -85.953125 C 58.722656 -80.253906 55.671875 -70.488281 55.671875 -56.65625 L 55.671875 0 Z M 18.5625 0 "/></g></g></g><g fill="#000000" fill-opacity="1"><g transform="translate(344.996935, 260.873202)"><g/></g></g></g></g><g transform="matrix(1, 0, 0, 1, 545, 80)"><g clip-path="url(#12bbe046c1)"><g fill="#000000" fill-opacity="1"><g transform="translate(1.899999, 260.873202)"><g><path d="M 69.59375 3.421875 C 52.988281 3.421875 39.925781 -1.828125 30.40625 -12.328125 C 20.882812 -22.828125 16.125 -36.953125 16.125 -54.703125 L 16.125 -128.203125 L 53.234375 -128.203125 L 53.234375 -58.359375 C 53.234375 -48.921875 55.472656 -41.597656 59.953125 -36.390625 C 64.429688 -31.179688 70.578125 -28.578125 78.390625 -28.578125 C 86.859375 -28.578125 93.613281 -31.503906 98.65625 -37.359375 C 103.707031 -43.222656 106.234375 -51.203125 106.234375 -61.296875 L 106.234375 -128.203125 L 143.34375 -128.203125 L 143.34375 0 L 115.75 0 L 111.84375 -14.40625 C 106.800781 -8.382812 100.613281 -3.90625 93.28125 -0.96875 C 85.957031 1.957031 78.0625 3.421875 69.59375 3.421875 Z M 69.59375 3.421875 "/></g></g></g><g fill="#000000" fill-opacity="1"><g transform="translate(139.608643, 260.873202)"><g><path d="M 80.34375 0 C 64.0625 0 51.566406 -4.191406 42.859375 -12.578125 C 34.148438 -20.960938 29.796875 -32.96875 29.796875 -48.59375 L 29.796875 -97.921875 L 4.890625 -97.921875 L 4.890625 -128.203125 L 16.359375 -128.203125 C 23.359375 -128.203125 28.117188 -129.34375 30.640625 -131.625 C 33.171875 -133.90625 34.921875 -138.300781 35.890625 -144.8125 L 38.09375 -161.421875 L 66.90625 -161.421875 L 66.90625 -128.203125 L 102.078125 -128.203125 L 102.078125 -97.921875 L 66.90625 -97.921875 L 66.90625 -54.21875 C 66.90625 -39.5625 74.070312 -32.234375 88.40625 -32.234375 L 103.78125 -32.234375 L 103.78125 0 Z M 80.34375 0 "/></g></g></g></g></g><g clip-path="url(#4b8ca24296)"><g transform="matrix(1, 0, 0, 1, 332, 283)"><g clip-path="url(#1499f35dcb)"><g clip-path="url(#86e782ff10)"><path fill="#ffffff" d="M 0.585938 0.140625 L 40.488281 0.140625 L 40.488281 71.210938 L 0.585938 71.210938 Z M 0.585938 0.140625 " fill-opacity="1" fill-rule="nonzero"/></g></g></g></g><g clip-path="url(#907f4141c3)"><g transform="matrix(1, 0, 0, 1, 690, 153)"><g clip-path="url(#ac4659f30b)"><g clip-path="url(#876679f67f)"><path fill="#ffffff" d="M 0.453125 0.8125 L 81.667969 0.8125 L 81.667969 115.976562 L 0.453125 115.976562 Z M 0.453125 0.8125 " fill-opacity="1" fill-rule="nonzero"/></g></g></g></g><g clip-path="url(#ddc4ce86bb)"><g clip-path="url(#101a8eed7c)"><g transform="matrix(1, 0, 0, 1, 355, 283)"><g clip-path="url(#b519a9fb3b)"><g clip-path="url(#a1760aebd4)"><g clip-path="url(#6aa4bfbf42)"><path fill="#006323" d="M 0.535156 0.140625 L 45.996094 0.140625 L 45.996094 65.3125 L 0.535156 65.3125 Z M 0.535156 0.140625 " fill-opacity="1" fill-rule="nonzero"/></g></g></g></g></g></g><g clip-path="url(#0540d29992)"><g clip-path="url(#1edef031bc)"><g transform="matrix(1, 0, 0, 1, 749, 203)"><g clip-path="url(#ab9d23359c)"><g clip-path="url(#5945358fee)"><g clip-path="url(#0d95b0cacc)"><path fill="#006323" d="M 0.835938 0.730469 L 50.808594 0.730469 L 50.808594 65.929688 L 0.835938 65.929688 Z M 0.835938 0.730469 " fill-opacity="1" fill-rule="nonzero"/></g></g></g></g></g></g><g transform="matrix(1, 0, 0, 1, 340, 64)"><g clip-path="url(#9b7aedc8ec)"><g fill="#000000" fill-opacity="1"><g transform="translate(102.267199, 302.07031)"><g><path d="M 76.46875 -28.578125 C 63.414062 -23.066406 50.796875 -20.828125 38.609375 -21.859375 C 26.429688 -22.898438 15.546875 -26.921875 5.953125 -33.921875 C -3.628906 -40.921875 -11.015625 -50.566406 -16.203125 -62.859375 C -21.398438 -75.160156 -23.148438 -87.144531 -21.453125 -98.8125 C -19.753906 -110.488281 -15.03125 -121.054688 -7.28125 -130.515625 C 0.46875 -139.984375 10.867188 -147.472656 23.921875 -152.984375 C 36.960938 -158.492188 49.578125 -160.726562 61.765625 -159.6875 C 73.960938 -158.65625 84.796875 -154.660156 94.265625 -147.703125 C 103.742188 -140.753906 111.082031 -131.128906 116.28125 -118.828125 C 121.46875 -106.535156 123.269531 -94.53125 121.6875 -82.8125 C 120.101562 -71.09375 115.429688 -60.5 107.671875 -51.03125 C 99.910156 -41.570312 89.507812 -34.085938 76.46875 -28.578125 Z M 17.53125 -77.109375 C 21.582031 -67.515625 27.941406 -60.925781 36.609375 -57.34375 C 45.273438 -53.769531 54.410156 -54.007812 64.015625 -58.0625 C 73.609375 -62.113281 80.109375 -68.476562 83.515625 -77.15625 C 86.921875 -85.84375 86.597656 -94.984375 82.546875 -104.578125 C 78.421875 -114.328125 72.078125 -120.96875 63.515625 -124.5 C 54.953125 -128.039062 45.875 -127.785156 36.28125 -123.734375 C 26.675781 -119.679688 20.117188 -113.332031 16.609375 -104.6875 C 13.097656 -96.050781 13.40625 -86.859375 17.53125 -77.109375 Z M 17.53125 -77.109375 "/></g></g></g></g></g></svg>